<?xml version="1.0" encoding="utf-8"?>
<!-- Generator: Adobe Illustrator 24.0.0, SVG Export Plug-In . SVG Version: 6.00 Build 0)  -->
<svg version="1.1" id="Calque_2" xmlns="http://www.w3.org/2000/svg" xmlns:xlink="http://www.w3.org/1999/xlink" x="0px" y="0px"
	 viewBox="0 0 500 500" style="enable-background:new 0 0 500 500;" xml:space="preserve">
<style type="text/css">
	.st0{fill:#686868;}
</style>
<g>
	<path class="st0" d="M0.2,122.3c0.9,0.1,1.4,0.9,2,1.4c14.9,14.8,29.6,29.7,44.6,44.4c7.6,7.5,15.1,15,22.7,22.5
		c0.7,0.7,1.5,1.2,2.4,1.5c14,4.9,28,9.8,41.9,14.7c18.9,6.7,37.9,13.4,56.8,20c5.1,1.8,10.2,3.6,15.2,5.4c1,0.4,1.8,0.3,2.7-0.2
		c9-4.9,18-9.9,27-14.8c6.5-3.5,13.1-7.1,19.7-10.5c13.9-7.3,27.8-14.7,41.7-22c4.6-2.4,9.1-4.8,13.8-7.1c1.5-0.7,2-1.7,2-3.2
		c0.3-5.4,0.7-10.8,1.2-16.3c0.4-4.3,0.7-8.5,1.1-12.8c0.4-4,0.7-8,1.1-11.9c0.5-4.6,1-9.2,1.5-13.7c0.6-5.1,1.2-10.1,1.8-15.2
		c0.9-6.9,1.8-13.8,2.9-20.6c0.5-3.1,1-6.1,1.4-9.2c0.2-1.3,1-1.8,2-2.2c6.2-2.5,12.4-4.9,18.6-7.4c26-10.4,52-20.6,78.2-30.4
		c17.5-6.6,35-13.1,52.6-19.4c14.2-5.1,28.4-10,42.6-14.8c0.5-0.2,1-0.4,1.5-0.6c0.2,0,0.4,0,0.7,0c-0.2,0.6-0.8,0.9-1.3,1.2
		c-13.9,8.5-28,16.8-42.1,24.9c-11,6.3-22,12.6-33,18.8c-9.6,5.4-19.3,10.8-29,16.1c-12,6.6-24.1,13.1-36.1,19.7
		c-7.4,4-14.8,7.9-22.2,11.8c-1.3,0.7-2,1.4-1.8,3c0.6,6.4,0.9,12.7,1.3,19.1c0.2,2.9,0.3,5.8,0.4,8.6c0.3,6.3,0.6,12.6,0.9,18.9
		c0,0.2,0,0.4,0,0.7c0,6.6,0.3,13.2,0.5,19.8c0.3,13.3,0.2,26.5,0.3,39.8c0,0.4,0,0.8,0,1.2c0.1,1-0.3,1.6-1.2,2.1
		c-3.1,1.7-6.2,3.4-9.3,5.1c-10.4,5.7-20.7,11.4-31.1,17c-7.5,4.1-14.9,8.1-22.4,12.1c-12.5,6.7-25.1,13.3-37.7,20
		c-1.2,0.6-2.4,1.2-3.6,1.8c-1.5,0.8-1.5,1-0.1,2c2.9,2.4,5.9,4.7,8.8,7.1c9,7.3,18,14.7,26.9,22c7.3,6,14.5,12,21.8,18
		c1.4,1.1,2.3,2.4,2.8,4.1c8,27.9,16,55.8,23.5,83.8c3.4,12.7,6.7,25.3,10.1,38c0.4,1.5,1.1,2.2,2.5,2.7
		c18.9,6.2,37.8,12.5,56.7,18.9c23.1,7.9,46.2,15.9,69.1,24.2c14.5,5.2,29,10.6,43.4,16.1c0.7,0.3,1.7,0.4,1.9,1.4
		c-0.2,0-0.4,0-0.7,0c-1.1-0.8-2.5-0.7-3.7-0.9c-12.8-2.1-25.5-4.3-38.2-6.6c-14.4-2.6-28.7-5.3-43-8.1c-20-3.9-40-7.8-59.9-12
		c-15.9-3.3-31.8-6.7-47.7-10c-1.5-0.3-2.3-1-2.8-2.4c-4.5-11.6-9.1-23.2-13.6-34.7c-6.4-16.4-12.7-32.9-18.9-49.5
		c-0.9-2.3-0.5-2.6-3.7-2.2c-6.3,0.8-12.6,1.4-18.8,2.1c-5.2,0.6-10.5,1.3-15.7,1.9c-5.3,0.6-10.6,1.2-15.9,1.8
		c-5.2,0.6-10.5,1.2-15.7,1.9c-4.2,0.5-8.5,1-12.7,1.4c-1.7,0.1-2.7,0.7-3.3,2.4c-2.7,7.7-5.5,15.4-8.3,23
		c-5.7,15.5-11.3,31.1-17,46.6c-0.8,2.2-1.6,4.4-2.4,6.6c-0.4,1.1-1,1.8-2,2.3c-7,3.6-13.9,7.2-20.9,10.8
		c-13.6,7-27.2,14.1-40.8,21.1c-2.2,1.1-4.3,2.3-6.5,3.4c-0.2,0.1-0.5,0.2-0.8,0.3c0-0.6,0.4-0.7,0.7-0.9
		c11.2-7.4,22.5-14.7,33.7-22.1c8.5-5.6,16.9-11.2,25.5-16.6c2.3-1.4,3.4-3,3.7-5.7c1.1-9.4,2.5-18.7,3.8-28
		c1.2-8.4,2.4-16.8,3.5-25.2c1.2-8.4,2.3-16.7,3.5-25.1c0.7-4.9,1.4-9.8,2-14.7c0.2-1.2,0.8-1.7,1.9-2c7-2,13.9-4.1,20.9-6.2
		c14.5-4.3,28.9-8.6,43.4-12.9c6.5-1.9,13.1-3.9,19.6-5.8c0.7-0.2,1.4-0.3,2-0.7c-0.3-0.6-0.8-0.8-1.2-1.1
		c-10.8-7.9-21.6-15.7-32.3-23.6c-12.6-9.3-25.1-18.7-37.7-28c-2.9-2.1-6.1-3.6-9.2-5.4c-12.7-7.3-25.3-14.5-38-21.8
		c-12.6-7.2-25.2-14.4-37.9-21.7c-12.3-7.1-24.6-14.1-37-21.2c-1-0.6-1.8-1.4-2.5-2.4c-9.3-14.6-18.7-29.2-28.1-43.7
		c-5.4-8.4-10.8-16.7-16.1-25.1c-3.3-5.1-6.6-10.3-9.9-15.4c-0.3-0.5-0.6-1.1-1.2-1.4C0.2,122.5,0.2,122.4,0.2,122.3z"/>
</g>
</svg>
