<?xml version="1.0" encoding="UTF-8"?>
<svg xmlns="http://www.w3.org/2000/svg" version="1.1" viewBox="0 0 1000 1000">
  <defs>
    <style>
      .cls-1 {
        fill: #b2b2b2;
      }
    </style>
  </defs>
  <!-- Generator: Adobe Illustrator 28.7.1, SVG Export Plug-In . SVG Version: 1.2.0 Build 142)  -->
  <g>
    <g id="Calque_1">
      <g>
        <polygon class="cls-1" points="588.3 460.5 516.8 437.2 572.3 486.9 570 569.7 511.2 645.6 589.8 596.8 1000 696.4 606.2 564 607.8 492.6 702.8 449.2 717.9 479.5 714.5 555 723.9 475 714.5 443.9 831.3 390.6 588.3 460.5"/>
        <polygon class="cls-1" points="353.7 406.1 357.5 526.2 384.2 422.3 532.5 414.8 597.1 450.8 554.1 396.4 626.2 206.7 522.4 383.9 384.4 387.3 284 245.9 405.3 202 279.6 239.6 164.2 77.1 353.7 406.1"/>
        <polygon class="cls-1" points="410.6 860.2 459.5 639.1 552.5 569.8 447.6 603.4 336.4 524.5 263.4 558.6 193.5 469.5 216.9 379.6 181.5 469.5 237.8 570.5 0 681.5 351.8 559.6 419.9 634.5 396 922.9 407.8 870.2 546.4 860.7 686 723.7 545.6 855.6 410.6 860.2"/>
      </g>
    </g>
  </g>
</svg>