<?xml version="1.0" encoding="UTF-8"?>
<svg id="Calque_1" xmlns="http://www.w3.org/2000/svg" version="1.1" viewBox="0 0 1000 1000">
  <!-- Generator: Adobe Illustrator 29.1.0, SVG Export Plug-In . SVG Version: 2.1.0 Build 142)  -->
  <defs>
    <style>
      .st0 {
        fill: #323333;
      }
    </style>
  </defs>
  <g id="Calque_11" data-name="Calque_1">
    <g>
      <g>
        <polygon class="st0" points="165.8 406.5 190 394.2 163.1 395.7 142.5 373.9 138.1 339.4 130.5 372.1 0 451.6 134.7 384.6 152.6 403.3 139.3 438.7 127.7 434.9 109.3 414.6 127.3 437.5 137.7 443.1 121.4 486.6 165.8 406.5"/>
        <polygon class="st0" points="239.7 360.4 208 330.6 227.8 364.1 191.8 404 166 411.3 190.9 414.2 221 481.2 202.2 409.3 236.7 373.1 298.6 383.6 278.8 425.9 301.3 384.1 372.4 396.1 239.7 360.4"/>
        <polygon class="st0" points="109 259.4 153 327.8 147 369.4 165.2 333.9 213.9 325.7 223.8 298.3 264.5 303.2 281.5 332.2 267.6 300.1 227.3 288.7 259.8 199.4 200.9 320.6 164.3 318.9 96.6 239 107.1 255.5 74.1 293.4 73.4 364.2 75.9 294.5 109 259.4"/>
      </g>
      <g>
        <polygon class="st0" points="736.4 504.5 690.6 489.6 726.2 521.4 724.7 574.5 687 623.1 737.4 591.8 1000 655.5 747.9 570.8 748.8 525 809.7 497.3 819.4 516.7 817.1 565 823.2 513.8 817.2 493.9 892 459.8 736.4 504.5"/>
        <polygon class="st0" points="586.2 469.7 588.5 546.6 605.7 480 700.6 475.2 742 498.3 714.4 463.5 760.7 342 694.2 455.5 605.8 457.6 541.5 367.1 619.2 339 538.7 363.1 464.8 259 586.2 469.7"/>
        <polygon class="st0" points="623.3 759.6 653.9 618.9 713.4 574.5 646.3 596 575 545.5 528.3 567.3 483.6 510.3 498.5 452.7 475.9 510.3 511.9 575 359.7 646 584.9 568 628.5 616 613.2 800.6 620.8 766.8 709.5 760.8 798.9 673 708.6 757 623.3 759.6"/>
      </g>
    </g>
  </g>
</svg>