<?xml version="1.0" encoding="utf-8"?>
<!-- Generator: Adobe Illustrator 24.0.0, SVG Export Plug-In . SVG Version: 6.00 Build 0)  -->
<svg version="1.1" id="Calque_2_1_" xmlns="http://www.w3.org/2000/svg" xmlns:xlink="http://www.w3.org/1999/xlink" x="0px"
	 y="0px" viewBox="0 0 500 500" style="enable-background:new 0 0 500 500;" xml:space="preserve">
<style type="text/css">
	.st0{fill:#696968;}
</style>
<g>
	<path class="st0" d="M73.9,292.9c0-40.8,0-81.5,0-122.3c0-3.9,0-3.9-4-3.9c-3.9-0.1-7.7,0.3-11.6-0.3c-4.9-0.8-8.6-4.4-9.2-8.9
		c-0.7-5.2,1.9-9.7,6.8-11.6c10.6-4.1,21.3-8.1,32-12.1c52.3-19.7,104.6-39.3,156.8-59c3.6-1.3,6.9-1.3,10.4,0
		C317.1,98,379,121.3,440.9,144.5c1.5,0.5,3,1.1,4.3,1.8c4.1,2.1,6.3,6.7,5.5,11.4c-0.7,4.3-4.2,7.8-8.6,8.6
		c-4.4,0.8-8.8,0.4-13.2,0.4c-2.1,0-2.9,0.7-2.9,2.9c0.1,8.9,0,17.8,0,26.7c0,72.5-0.1,145.1,0.1,217.6c0,8.5-5.8,12.7-12.6,12.5
		c-11.8-0.3-23.5-0.1-35.3-0.1c-9.6,0-13.6-4-13.6-13.5c0-63.3,0-126.7,0-190c0-6.8-1.6-13.1-5.8-18.6c-3.9-5-8.8-7.6-15.4-7.6
		c-62.3,0.1-124.6,0.1-186.9,0c-7.6,0-13,3.4-16.9,9.5c-3.2,5-4.5,10.5-4.5,16.5c0.1,34.1,0,68.1,0,102.2c0,29.3,0,58.6,0,87.9
		c0,1.6-0.1,3.1-0.3,4.7c-1,5.5-4.9,9-10.5,9.1c-13.3,0.1-26.7,0.1-40,0c-6.3-0.1-10.5-4.6-10.5-11
		C73.9,374.4,73.9,333.6,73.9,292.9z M404.8,279.2c0-40.4,0-80.8,0.1-121.2c0-3-0.8-4.5-3.8-5.6c-49.5-18.5-98.9-37.1-148.3-55.7
		c-1.9-0.7-3.6-0.7-5.5,0c-49.4,18.6-98.8,37.2-148.3,55.7c-2.9,1.1-3.8,2.5-3.8,5.6c0.1,80.7,0.1,161.4,0.1,242.1
		c0,0.6,0.1,1.1,0,1.7c-0.2,2.1,0.6,3,2.8,2.9c3.8-0.1,7.5,0,11.3,0c4.3,0,4.3,0,4.3-4.4c0-59.4,0-118.8,0-178.2
		c0-9.4,2.2-18.2,7.1-26.3c7.7-12.9,18.9-20.7,34.2-20.8c63.4-0.2,126.8-0.1,190.2-0.1c6.5,0,12.8,1.6,18.4,5
		c15.4,9.4,22.6,23.7,22.7,41.2c0.3,52,0.1,103.9,0.1,155.9c0,8.2,0.1,16.3,0,24.5c0,2.2,0.7,3.2,3,3.1c3.9-0.1,7.7,0,11.6,0
		c3.9,0,3.9,0,3.9-4C404.8,360.2,404.8,319.7,404.8,279.2z"/>
	<path class="st0" d="M250.1,275.3c-31.4,0-62.9,0-94.3,0c-8.3,0-12.4-4-12.4-12.3c0-9.9,0-19.8,0-29.7c0-12.9,9-22,22-22.1
		c9.4-0.1,18.7,0,28.1,0c46.8,0,93.6,0,140.3,0c11.4,0,19.7,6.2,22.3,16.5c0.4,1.5,0.4,3.1,0.4,4.6c0,10.6,0,21.1,0,31.7
		c0,7-4.4,11.3-11.4,11.3C313.5,275.3,281.8,275.3,250.1,275.3z M249.7,253.7c27.3,0,54.6,0,81.9,0c3.7,0,3.7,0,3.7-3.6
		c0-4.4,0-8.8,0-13.2c0-4,0-4-4.1-4c-54.1,0-108.2,0-162.4,0c-0.6,0-1.1,0-1.7,0c-1.9-0.2-2.6,0.8-2.5,2.6c0.1,4.8,0,9.5,0,14.3
		c0,3.9,0,3.9,4,3.9C195.7,253.7,222.7,253.7,249.7,253.7z"/>
</g>
</svg>
