<?xml version="1.0" encoding="utf-8"?>
<!-- Generator: Adobe Illustrator 24.0.0, SVG Export Plug-In . SVG Version: 6.00 Build 0)  -->
<svg version="1.1" id="Calque_2_1_" xmlns="http://www.w3.org/2000/svg" xmlns:xlink="http://www.w3.org/1999/xlink" x="0px"
	 y="0px" viewBox="0 0 500 500" style="enable-background:new 0 0 500 500;" xml:space="preserve">
<style type="text/css">
	.st0{fill:#696968;}
</style>
<path class="st0" d="M403.1,152.2c13.7,0,27.4,0,41.1,0c2.1,0,3.3,0.7,4.2,2.7c16.8,37.5,33.7,74.9,50.7,112.3
	c0.7,1.5,0.9,3,0.9,4.6c0,26.6,0,53.1,0,79.7c0,3.6,0,3.6-3.7,3.6c-7.8,0-15.6,0.1-23.4-0.1c-2.4,0-3.4,0.6-4.1,3.1
	c-4.1,16-12.8,28.9-26.9,37.8c-20.2,12.9-47.8,10.3-65.5-5.9c-9.7-8.9-16.2-19.7-19.2-32.5c-0.4-1.9-1.3-2.6-3.2-2.6
	c-44.4,0.1-88.7,0.1-133.1,0c-2.1,0-2.8,0.7-3.3,2.7c-5.6,20.9-17.8,36.3-38.6,43.6c-23.4,8.2-49.1-1-63.5-22.1
	c-4.5-6.6-7.7-13.8-9.6-21.5c-0.5-2-1.3-2.7-3.4-2.7c-7.7,0.1-15.5,0-23.2,0.1c-2.3,0-3.1-0.7-3-3c0.7-10,1.3-19.9,1.9-29.9
	c0.4-6.3,0.7-12.6,1.1-18.9c0.2-3.6,0.3-7.2,0.6-10.8c0.2-2.4-0.7-3.2-3.1-3.2c-17.2,0.1-34.5,0-51.7,0.1c-7.5,0-14.1-2.1-19.1-8
	c-6-7.1-7.5-15.3-4.6-24.1c2.9-8.5,8.8-13.9,17.8-15.6c1.5-0.3,3-0.3,4.5-0.3c18.6,0,37.1,0,55.7,0c1.2,0,2.5,0.4,2.9-1.5
	c0.8-3.4,0.6-3.8-2.9-3.8c-10.3,0-20.7,0-31,0c-12,0-21.6-9-23-21.5c-1.4-11.7,6.4-23.1,17.6-25.8c2.1-0.5,4.3-0.7,6.5-0.7
	c11,0,22-0.1,33,0.1c2.6,0,3.7-0.6,4-3.4c0.5-5.6,0.7-5.6-4.9-5.6c-2.9,0-5.9-0.1-8.8,0c-9.2,0.2-16.1-3.8-20.6-11.7
	c-4.6-8.1-4.6-16.5,0.1-24.5c4.4-7.7,11.1-11.7,20.1-11.5c4.7,0.1,9.4-0.1,14.1,0c1.9,0,2.8-0.4,3-2.6c0.5-9.6,1.3-19.1,1.9-28.6
	c0.3-4.4,0.2-4.5,4.7-4.5c88.2,0,176.5,0,264.7,0c0.8,0,1.5,0,2.3,0c1.4,0,1.9,0.7,1.7,2.1c-1.6,13.5-3.1,27-4.7,40.5
	c-0.4,3.6-0.8,7.2-1.2,10.8c-0.3,2.3,0.5,3.1,2.9,3.1C375.6,152.2,389.3,152.2,403.1,152.2z M268,335.6c15.9,0,31.8,0,47.7,0
	c1.8,0,2.6-0.4,2.8-2.5c1.1-11,2.4-22,3.6-33c1.4-12.9,2.9-25.9,4.3-38.8c1.4-12.8,2.8-25.5,4.2-38.3c1.4-13,2.9-26,4.4-39
	c1.3-11.3,2.5-22.7,3.8-34c1.2-10.3,2.5-20.7,3.7-31c0.4-3.5,0.3-3.5-3.2-3.5c-58,0-116,0-174,0c-17.3,0-34.6,0-51.9,0
	c-2.1,0-3.2,0.4-3.3,2.8c-0.5,8.8-1.3,17.6-1.7,26.4c-0.3,6.2-0.2,6.2-6.3,6.2c-9.5,0-19,0-28.5,0c-3.2,0-4.6,1.4-4.6,4.3
	c0,3,1.5,4.4,4.8,4.4c11.1,0,22.2,0.1,33.3,0c2.2,0,3,0.6,2.5,2.9c-0.8,4.1-1.2,8.3-1.7,12.5c-1.4,10-2.8,19.9-4.1,29.9
	c-0.3,2.1-1.1,3-3.4,2.9c-5.5-0.2-10.9,0-16.4,0c-11.4,0-22.9,0-34.3,0c-2.9,0-4.2,1.3-4.3,4c-0.1,3,1.3,4.3,4.5,4.3
	c17.6,0,35.3,0,52.9,0c3.4,0,3.5,0.1,3,3.4c-2,12.7-4,25.4-6.1,38c-0.6,3.5-0.6,3.5-4.4,3.5c-21.9,0-43.9,0-65.8,0c-2,0-4-0.1-6,0
	c-2.4,0.1-3.4,1.4-3.4,4.1c0,2.5,1.1,4.1,3.3,4.3c0.8,0.1,1.7,0,2.5,0c24,0,48.1,0,72.1,0c2.3,0,3.3,0.3,3,3.1
	c-0.6,7-0.8,14.1-1.2,21.1c-0.4,6.6-0.9,13.2-1.3,19.8c-0.4,6.5-0.8,12.9-1.1,19.4c0,0.8-0.4,2,0.5,2.3c2.1,0.8,4.3,0.4,6.5,0.2
	c1.5-0.1,1.4-1.8,1.6-2.8c3.3-12.8,9.6-23.8,19.8-32.3c16.1-13.4,34.4-17.4,54.2-10.2c20,7.2,31.9,22.3,37.3,42.5
	c0.6,2.3,1.5,3.1,3.9,3.1C236.7,335.5,252.3,335.6,268,335.6z M480.2,303.9c0-9.5,0-19,0-28.5c0-1.4-0.2-2.6-0.8-3.9
	c-14.5-32.2-29.1-64.3-43.5-96.5c-1-2.2-2.2-3.1-4.7-3.1c-23.5,0.1-47.1,0.1-70.6,0.1c-0.8,0-1.7,0-2.5,0c-1.5-0.1-2.1,0.7-2.2,2.1
	c-1,9.4-2,18.9-3.1,28.3c-1.2,11.1-2.4,22.2-3.7,33.3c-1.4,12.9-2.9,25.9-4.3,38.8c-1.3,11.5-2.6,23-3.9,34.5
	c-0.9,7.9-1.8,15.8-2.7,23.8c-0.2,1.9,0.1,3,2.5,2.9c4.5-0.2,9.1-0.1,13.6,0c1.7,0,2.5-0.5,2.9-2.3c2.2-9.4,6.2-18,12.5-25.3
	c14.7-17.3,33.3-24.9,55.7-19.7c21.7,5.1,35.1,19.7,42.3,40.4c0.8,2.2,0.4,5.2,2.3,6.5c1.9,1.2,4.8,0.2,7.2,0.4c2.3,0.2,3-0.7,3-3
	C480.1,323.1,480.2,313.5,480.2,303.9z M162.6,306.5c-12.2,0.1-21.5,4.7-28.6,13.3c-6.8,8.1-11,17.5-9.9,28.2
	c1.1,11.1,6.1,20.5,14.6,27.9c6.4,5.5,13.9,8.6,22.3,8.6c14.4,0,24.9-7,32.3-19c4.1-6.6,6.6-13.9,6-21.7c-0.5-6.8-2.7-13.2-6.4-18.9
	C185.5,313.6,175.5,306.9,162.6,306.5z M412.7,384.6c12.8-0.5,22.6-6,29.9-15.9c5.4-7.5,8.9-15.9,8.2-25.1
	c-0.9-11.5-6.1-21.2-15-28.7c-8.1-6.8-17.5-9.7-27.9-7.9c-16.2,2.9-25.7,13.4-30.7,28.6c-1.2,3.6-2.1,7.4-1.8,11.1
	c0.4,6.3,2.3,12.2,5.5,17.7C387.9,376.8,398.5,384,412.7,384.6z"/>
</svg>
