<?xml version="1.0" encoding="utf-8"?>
<!-- Generator: Adobe Illustrator 24.0.0, SVG Export Plug-In . SVG Version: 6.00 Build 0)  -->
<svg version="1.1" id="Calque_2" xmlns="http://www.w3.org/2000/svg" xmlns:xlink="http://www.w3.org/1999/xlink" x="0px" y="0px"
	 viewBox="0 0 500 500" style="enable-background:new 0 0 500 500;" xml:space="preserve">
<style type="text/css">
	.st0{fill:#545354;}
</style>
<path class="st0" d="M438.4,61.6C365.8-11,248.1-11,175.5,61.6C111.8,125.3,104,223.6,152,295.8L24.8,423.1c-13,13-13,34,0,46.9
	l5.2,5.2c13,13,34,13,46.9,0L204.2,348c72.2,48,170.6,40.2,234.3-23.5C511,251.9,511,134.2,438.4,61.6z M227.6,272.4
	c-43.8-43.8-43.8-114.9,0-158.7s114.9-43.8,158.7,0c43.8,43.8,43.8,114.9,0,158.7S271.4,316.2,227.6,272.4z"/>
</svg>
