<?xml version="1.0" encoding="UTF-8"?>
<svg xmlns="http://www.w3.org/2000/svg" version="1.1" viewBox="0 0 1000 1000">
  <defs>
    <style>
      .cls-1 {
        fill: #fff;
        stroke: #a2a0a0;
        stroke-miterlimit: 10;
        stroke-width: 15px;
      }
    </style>
  </defs>
  <!-- Generator: Adobe Illustrator 28.7.1, SVG Export Plug-In . SVG Version: 1.2.0 Build 142)  -->
  <g>
    <g id="Calque_1">
      <g id="Calque_1-2" data-name="Calque_1">
        <path class="cls-1" d="M295.3,162.4c20.8-2.5,399.1-2,419.7,1.9,69.1,13,120.9,121.6,146.7,180.1,4,1,8-23.3,12.1-28.8,10.3-13.7,85.7-12.1,94.7,3.7,5.4,9.5,3.2,23.1-6.5,28.8-9.8,5.8-63.7,7.8-64.1,21.4-.3,10,21,5.5,37.1,29.7,12.3,18.4,32.8,78.1,35.3,100.3,4.9,43.5-3.6,180.8,0,241.4-7.8,26.3,2.9,91.1-32.5,97.5-5.1.9-98.9,1-104,0-18.7-3.5-15-23.6-20.4-29.7-1.5-1.7-26.8-8.2-33.4-20.4H213.6c-5.5,1.3-12.8,16-31.6,18.6-9.1,6.8-4.7,27.9-22.3,31.6-4.7,1-91.8.8-96.6,0-35.3-6.2-24.4-68-32.5-93.8,3.9-61.6-5.3-201.8,0-245.1,3.8-31,27.2-100.2,52.9-117.9,2.7-1.8,34.2-8.3,11.1-20.4-18.3-9.7-103.6-7.6-48.3-52,66.9-2.4,67.3-14.5,87.3,44.6,31.5-64.1,80.6-181.6,161.6-191.3h0ZM325,190.3c-101.4,10.3-117.4,106.7-162.5,179.2l2.8,6.5h670.5c.2-1.3,2.7-4.4,2.8-4.6,1.2-7.4-65.9-126-70.6-131.9-20-25.2-58.1-45.8-90.1-49.2-17.5-1.9-335.3-1.8-352.9,0h0ZM124.9,472.4l164.5,20.2c9.2,1.1,16,10.9,15.5,22.3l-.5,13.7c-.4,12-8.6,21.5-18.3,21.1l-144.1-5.3c-4.9-.2-9.4-2.8-12.6-7.4l-19.9-28.5c-10.3-14.8-.4-37.9,15.4-36h0ZM892.2,508.4l-19.9,28.5c-3.2,4.5-7.7,7.2-12.6,7.4l-144.1,5.3c-9.7.4-17.9-9.1-18.3-21.1l-.5-13.7c-.4-11.4,6.4-21.2,15.5-22.3l164.5-20.2c15.8-1.9,25.7,21.2,15.4,36ZM716.5,738.9h-431.3c-1.7,0-3.1-1.4-3.1-3.1v-75.6c0-1.7,1.4-3.1,3.1-3.1h431.3c1.7,0,3.1,1.4,3.1,3.1v75.6c0,1.7-1.4,3.1-3.1,3.1Z"/>
      </g>
    </g>
  </g>
</svg>