<?xml version="1.0" encoding="UTF-8"?>
<svg xmlns="http://www.w3.org/2000/svg" version="1.1" viewBox="0 0 1000 1000">
  <defs>
    <style>
      .cls-1 {
        fill: none;
        stroke: #a2a0a0;
        stroke-miterlimit: 10;
        stroke-width: 15px;
      }
    </style>
  </defs>
  <!-- Generator: Adobe Illustrator 28.7.1, SVG Export Plug-In . SVG Version: 1.2.0 Build 142)  -->
  <g>
    <g id="Calque_1">
      <g id="Calque_1-2" data-name="Calque_1">
        <g>
          <path class="cls-1" d="M376.8,186.9c12.2-1.5,234-1.6,246.2,0,43.9,5.7,80.3,46.4,86.9,88.9,65.8,2.5,174.8-21.1,187.2,71.4,2.6,19.4,2.3,371.5,0,391-4,33.9-32.3,68.4-67.2,73.4-56.3,8.1-548.3-6.2-659.9,0-36-8.4-62.9-36.3-67.2-73.4-2.2-19.2-2.2-367.6,0-386.8,11-97.4,117.7-72.8,187.2-75.5,7.6-42.5,42.1-83.3,86.9-88.9h0Z"/>
          <path class="cls-1" d="M486.4,382.8c135.7-10.3,222,146.6,143.8,256.8-67.1,94.5-214.6,83.8-270.4-17.2-55.3-100.1,11.4-230.9,126.6-239.6h0Z"/>
        </g>
      </g>
    </g>
  </g>
</svg>