<?xml version="1.0" encoding="utf-8"?>
<!-- Generator: Adobe Illustrator 24.0.0, SVG Export Plug-In . SVG Version: 6.00 Build 0)  -->
<svg version="1.1" id="Calque_2" xmlns="http://www.w3.org/2000/svg" xmlns:xlink="http://www.w3.org/1999/xlink" x="0px" y="0px"
	 viewBox="0 0 200 200" style="enable-background:new 0 0 200 200;" xml:space="preserve">
<style type="text/css">
	.st0{fill:#A1A09F;}
	.st1{fill:#FFFFFF;}
	.st2{fill:#0B62AB;}
	.st3{fill:#FFCF06;}
</style>
<g>
	<g>
		<path class="st2" d="M79.3,151.9h-65C7,151.9,1,146,1,138.6V61.4C1,54,7,48.1,14.3,48.1h65V151.9z"/>
		<polygon class="st3" points="40.2,57.8 40.8,59.7 42.7,59.7 41.1,60.8 41.7,62.7 40.2,61.5 38.6,62.7 39.2,60.8 37.6,59.7 
			39.6,59.7 		"/>
		<polygon class="st3" points="40.2,91.4 40.8,93.3 42.7,93.3 41.1,94.4 41.7,96.3 40.2,95.1 38.6,96.3 39.2,94.4 37.6,93.3 
			39.6,93.3 		"/>
		<polygon class="st3" points="20.9,77 22.8,76.4 22.8,74.5 23.9,76.1 25.8,75.5 24.6,77 25.8,78.6 23.9,78 22.8,79.6 22.8,77.6 		
			"/>
		<polygon class="st3" points="54.5,77 56.4,76.4 56.4,74.5 57.5,76.1 59.4,75.5 58.2,77 59.4,78.6 57.5,78 56.4,79.6 56.4,77.6 		
			"/>
		<polygon class="st3" points="26.6,90.6 27.4,88.9 26.1,87.5 28,87.8 28.9,86.1 29.2,88 31.1,88.3 29.4,89.2 29.7,91.1 28.3,89.8 
					"/>
		<polygon class="st3" points="50.3,66.9 51.2,65.1 49.8,63.8 51.8,64.1 52.6,62.3 52.9,64.3 54.9,64.6 53.1,65.4 53.4,67.4 
			52.1,66 		"/>
		<polygon class="st3" points="53.8,90.6 52,89.8 50.6,91.1 50.9,89.2 49.2,88.3 51.1,88 51.4,86.1 52.3,87.8 54.3,87.5 52.9,88.9 
					"/>
		<polygon class="st3" points="30,66.9 28.3,66 26.9,67.4 27.2,65.4 25.4,64.6 27.4,64.3 27.7,62.3 28.6,64.1 30.5,63.8 29.1,65.1 
					"/>
		<g>
			<path class="st1" d="M50.9,109.3v5.9H38.3v7.4h12.2v5.9H38.3v12.1h-6.2v-31.4H50.9z"/>
		</g>
	</g>
</g>
</svg>
