<?xml version="1.0" encoding="utf-8"?>
<!-- Generator: Adobe Illustrator 24.0.0, SVG Export Plug-In . SVG Version: 6.00 Build 0)  -->
<svg version="1.1" id="Calque_2" xmlns="http://www.w3.org/2000/svg" xmlns:xlink="http://www.w3.org/1999/xlink" x="0px" y="0px"
	 viewBox="0 0 800 200" style="enable-background:new 0 0 800 200;" xml:space="preserve">
<style type="text/css">
	.st0{fill:#A1A09F;}
	.st1{fill:#FFFFFF;}
	.st2{fill:#0B62AB;}
	.st3{fill:#FFCF06;}
</style>
<g>
	<g>
		<path class="st0" d="M777.5,36.3H22.5C10.1,36.3,0,46.4,0,58.9v82.2c0,12.5,10.1,22.5,22.5,22.5h754.9c12.5,0,22.5-10.1,22.5-22.5
			V58.9C800,46.4,789.9,36.3,777.5,36.3z M798.9,140.2c0,12.3-10,22.3-22.3,22.3H23.5c-12.3,0-22.3-10-22.3-22.3V59.8
			c0-12.3,10-22.3,22.3-22.3h753.1c12.3,0,22.3,10,22.3,22.3V140.2z"/>
		<path class="st1" d="M776.8,37.5H23.3c-12.2,0-22.1,9.9-22.1,22.1v80.7c0,12.2,9.9,22.1,22.1,22.1h753.5
			c12.2,0,22.1-9.9,22.1-22.1V59.6C798.9,47.4,789,37.5,776.8,37.5z"/>
	</g>
	<path class="st2" d="M95.6,162.5H23.3c-12.2,0-22.1-9.9-22.1-22.1V59.6c0-12.2,9.9-22.1,22.1-22.1h72.3V162.5z"/>
	<polygon class="st3" points="48.4,48.9 49.1,51.2 51.5,51.2 49.6,52.5 50.3,54.8 48.4,53.4 46.5,54.8 47.2,52.5 45.3,51.2 
		47.7,51.2 	"/>
	<polygon class="st3" points="48.4,89.5 49.1,91.7 51.5,91.7 49.6,93.1 50.3,95.3 48.4,93.9 46.5,95.3 47.2,93.1 45.3,91.7 
		47.7,91.7 	"/>
	<polygon class="st3" points="25.2,72.1 27.4,71.4 27.4,69 28.8,70.9 31.1,70.2 29.7,72.1 31.1,74 28.8,73.3 27.4,75.2 27.4,72.8 	
		"/>
	<polygon class="st3" points="65.7,72.1 68,71.4 68,69 69.4,70.9 71.6,70.2 70.2,72.1 71.6,74 69.4,73.3 68,75.2 68,72.8 	"/>
	<polygon class="st3" points="32,88.5 33.1,86.4 31.4,84.8 33.7,85.1 34.8,83 35.2,85.4 37.5,85.7 35.4,86.8 35.8,89.1 34.1,87.5 	
		"/>
	<polygon class="st3" points="60.7,59.9 61.7,57.8 60.1,56.1 62.4,56.5 63.5,54.4 63.8,56.7 66.2,57.1 64.1,58.1 64.4,60.5 
		62.8,58.8 	"/>
	<polygon class="st3" points="64.8,88.5 62.7,87.5 61,89.1 61.4,86.8 59.3,85.7 61.6,85.4 62,83 63.1,85.1 65.4,84.8 63.7,86.4 	"/>
	<polygon class="st3" points="36.1,59.9 34,58.8 32.4,60.5 32.7,58.1 30.6,57.1 33,56.7 33.3,54.4 34.4,56.5 36.7,56.1 35.1,57.8 	
		"/>
	<g>
		<path class="st1" d="M61.4,111v7.1H46.2v9h14.7v7.1H46.2v14.6h-7.5V111H61.4z"/>
	</g>
</g>
</svg>
