<?xml version="1.0"?>
<svg width="1000" height="200" xmlns="http://www.w3.org/2000/svg" xmlns:svg="http://www.w3.org/2000/svg" version="1.1">
 <defs>
  <style>.cls-1 {
        fill: #b3b2b2;
      }

      .cls-2 {
        fill: #fbcc24;
      }</style>
 </defs>
 <!-- Generator: Adobe Illustrator 28.7.0, SVG Export Plug-In . SVG Version: 1.2.0 Build 55)  -->
 <g class="layer">
  <title>Layer 1</title>
  <g id="svg_1">
   <g id="Calque_1">
    <g id="svg_2">
     <path class="cls-2" d="m692.84,21.41l18.92,58.21c0.09,0.28 0.35,0.47 0.64,0.47l61.21,0c0.65,0 0.93,0.84 0.4,1.22l-49.52,35.98c-0.24,0.17 -0.34,0.48 -0.25,0.75l18.92,58.21c0.2,0.62 -0.51,1.14 -1.04,0.75l-49.52,-35.98c-0.24,-0.17 -0.56,-0.17 -0.79,0l-49.52,35.98c-0.53,0.38 -1.24,-0.13 -1.04,-0.75l18.92,-58.21c0.09,-0.28 0,-0.58 -0.25,-0.75l-49.52,-35.98c-0.53,-0.38 -0.26,-1.22 0.4,-1.22l61.21,0c0.29,0 0.55,-0.19 0.64,-0.47l18.92,-58.21c0.2,-0.62 1.08,-0.62 1.28,0l-0.01,0z" id="svg_3"/>
     <path class="cls-2" d="m505.31,21.41l18.92,58.21c0.09,0.28 0.35,0.47 0.64,0.47l61.21,0c0.65,0 0.93,0.84 0.4,1.22l-49.52,35.98c-0.24,0.17 -0.34,0.48 -0.25,0.75l18.92,58.21c0.2,0.62 -0.51,1.14 -1.04,0.75l-49.52,-35.98c-0.24,-0.17 -0.56,-0.17 -0.79,0l-49.52,35.98c-0.53,0.38 -1.24,-0.13 -1.04,-0.75l18.92,-58.21c0.09,-0.28 0,-0.58 -0.25,-0.75l-49.52,-35.98c-0.53,-0.38 -0.26,-1.22 0.4,-1.22l61.21,0c0.29,0 0.55,-0.19 0.64,-0.47l18.92,-58.21c0.2,-0.62 1.08,-0.62 1.28,0l-0.01,0z" id="svg_4"/>
     <path class="cls-2" d="m317.78,21.41l18.92,58.21c0.09,0.28 0.35,0.47 0.64,0.47l61.21,0c0.65,0 0.93,0.84 0.4,1.22l-49.52,35.98c-0.24,0.17 -0.34,0.48 -0.25,0.75l18.92,58.21c0.2,0.62 -0.51,1.14 -1.04,0.75l-49.52,-35.98c-0.24,-0.17 -0.56,-0.17 -0.79,0l-49.52,35.98c-0.53,0.38 -1.24,-0.13 -1.04,-0.75l18.92,-58.21c0.09,-0.28 0,-0.58 -0.25,-0.75l-49.52,-35.98c-0.53,-0.38 -0.26,-1.22 0.4,-1.22l61.21,0c0.29,0 0.55,-0.19 0.64,-0.47l18.92,-58.21c0.2,-0.62 1.08,-0.62 1.28,0l-0.01,0z" id="svg_5"/>
     <path class="cls-2" d="m130.25,21.41l18.92,58.21c0.09,0.28 0.35,0.47 0.64,0.47l61.21,0c0.65,0 0.93,0.84 0.4,1.22l-49.52,35.98c-0.24,0.17 -0.34,0.48 -0.25,0.75l18.92,58.21c0.2,0.62 -0.51,1.14 -1.04,0.75l-49.52,-35.98c-0.24,-0.17 -0.56,-0.17 -0.79,0l-49.52,35.98c-0.53,0.38 -1.24,-0.13 -1.04,-0.75l18.92,-58.21c0.09,-0.28 0,-0.58 -0.25,-0.75l-49.52,-35.98c-0.53,-0.38 -0.26,-1.22 0.4,-1.22l61.21,0c0.29,0 0.55,-0.19 0.64,-0.47l18.92,-58.21c0.2,-0.62 1.08,-0.62 1.28,0l-0.01,0z" id="svg_6"/>
     <g id="svg_7">
      <path class="cls-2" d="m899.29,79.63l-18.92,-58.21c-0.2,-0.62 -1.08,-0.62 -1.28,0l-18.92,58.21c-0.09,0.28 -0.35,0.47 -0.64,0.47l-61.21,0c-0.65,0 -0.93,0.84 -0.4,1.22l49.52,35.98c0.24,0.17 0.34,0.48 0.25,0.75l-18.92,58.21c-0.2,0.62 0.51,1.14 1.04,0.75l49.52,-35.98c0.24,-0.17 0.56,-0.17 0.79,0l19.8,14.39l0,-75.33c-0.29,0 -0.55,-0.19 -0.64,-0.47l0.01,0.01z" id="svg_8"/>
      <path class="cls-1" d="m930.69,176.26l-18.92,-58.21c-0.09,-0.28 0,-0.58 0.25,-0.75l49.52,-35.98c0.53,-0.38 0.26,-1.22 -0.4,-1.22l-61.21,0l0,75.33l29.72,21.59c0.53,0.38 1.24,-0.13 1.04,-0.75l0,-0.01z" id="svg_9"/>
     </g>
    </g>
   </g>
  </g>
 </g>
</svg>