<?xml version="1.0" encoding="utf-8"?>
<!-- Generator: Adobe Illustrator 24.0.0, SVG Export Plug-In . SVG Version: 6.00 Build 0)  -->
<svg version="1.1" id="Calque_2" xmlns="http://www.w3.org/2000/svg" xmlns:xlink="http://www.w3.org/1999/xlink" x="0px" y="0px"
	 viewBox="0 0 500 500" style="enable-background:new 0 0 500 500;" xml:space="preserve">
<style type="text/css">
	.st0{fill:#50AE39;}
</style>
<path class="st0" d="M356.6,106.6H143.4C64.5,106.6,0,171.1,0,250v0c0,78.9,64.5,143.4,143.4,143.4h213.2
	c78.9,0,143.4-64.5,143.4-143.4v0C500,171.1,435.5,106.6,356.6,106.6z M323.9,293.3c-0.3,2.5-1.1,5-1.7,7.5
	c-1.2,5.3-5.1,8.4-9.3,11.2c-5.6,3.7-11.7,6.3-18.4,7.1c-1.4,0.2-2.7,0.2-4.1,0.3c-6.1,0-11.8-1.8-17.5-3.9c-9-3.3-18-6.4-26.1-11.7
	c-11.3-7.3-21.2-16.2-30.3-26c-6.8-7.4-13-15.2-18-24c-3.9-6.8-6.3-14.2-9-21.5c-2.1-5.6-3.9-11.4-3.9-17.5c0-4.3,0.6-8.5,2.1-12.6
	c1.5-4.1,3.6-7.8,5.9-11.4c3.1-4.8,7.3-7.8,12.9-8.9c2.4-0.5,4.7-1,7.1-1.3c2.4-0.3,4.3,0.3,5.6,2.4c2.8,4.5,5.2,9.3,7.8,13.9
	c2.3,4.1,4.6,8.2,7.3,12.1c2.9,4.3,2.6,6.4-0.9,10.2c-3.1,3.4-7,5.9-10.4,8.9c-5.2,4.6-5.5,6.1-2,12.1c4.3,7.4,8.9,14.7,14.6,21.2
	c7.2,8.1,15.6,14.6,25,20c2.4,1.4,4.8,3,7.3,4.2c2.5,1.2,4.5,0.7,6.4-1.2c1.9-1.9,3.7-3.9,5.4-6c2.1-2.8,4.3-5.3,6.9-7.6
	c2.9-2.6,4.9-3,8.2-0.8c8.1,5.4,16.8,9.8,25.3,14.6C324.6,287.3,324.5,287.9,323.9,293.3z"/>
</svg>
