<?xml version="1.0" encoding="utf-8"?>
<!-- Generator: Adobe Illustrator 24.0.0, SVG Export Plug-In . SVG Version: 6.00 Build 0)  -->
<svg version="1.1" id="Calque_1" xmlns="http://www.w3.org/2000/svg" xmlns:xlink="http://www.w3.org/1999/xlink" x="0px" y="0px"
	 viewBox="0 0 500 500" style="enable-background:new 0 0 500 500;" xml:space="preserve">
<style type="text/css">
	.st0{fill:white;}
</style>
<path class="st0" d="M378.3,500.2c-22.1,0-42.7-6.5-63.1-13.9c-32.4-11.8-64.9-23.2-94.2-42c-40.7-26.3-76.3-58.5-109.2-93.8
	c-24.7-26.5-47-54.9-64.9-86.5c-13.9-24.6-22.8-51.3-32.5-77.6c-7.6-20.4-14-41-14.2-63.1c-0.1-15.6,2.3-30.8,7.6-45.5
	C13,63.2,20.5,49.7,29,36.7C40.1,19.5,55.2,8.5,75.5,4.6C84,3,92.5,1.2,101.1,0c8.5-1.1,15.4,1.2,20.2,8.8
	c10.2,16.3,18.7,33.5,28.2,50.2c8.3,14.8,16.8,29.4,26.2,43.5c10.3,15.4,9.4,23.1-3.3,36.8c-11.3,12.2-25.2,21.3-37.6,32.2
	c-18.7,16.4-19.7,22.1-7,43.7c15.6,26.8,31.9,53,52.7,76.3c25.9,29.2,56.3,52.8,90,72.1c8.8,5,17.2,10.7,26.4,15
	c8.9,4.2,16.2,2.4,23-4.3c6.9-6.8,13.5-13.9,19.4-21.7c7.5-9.9,15.6-19.3,24.9-27.6c10.5-9.4,17.8-10.8,29.6-3
	c29.4,19.4,60.7,35.2,91.2,52.6c16.9,9.6,16.5,11.8,14.4,31.4c-1,9.2-3.9,18.1-6,27.1c-4.5,19-18.2,30.4-33.5,40.4
	c-20.3,13.2-42,22.9-66.4,25.6C388.2,499.9,383.2,499.9,378.3,500.2z"/>
</svg>
