<?xml version="1.0" encoding="utf-8"?>
<!-- Generator: Adobe Illustrator 24.0.0, SVG Export Plug-In . SVG Version: 6.00 Build 0)  -->
<svg version="1.1" id="Calque_1" xmlns="http://www.w3.org/2000/svg" xmlns:xlink="http://www.w3.org/1999/xlink" x="0px" y="0px"
	 viewBox="0 0 500 500" style="enable-background:new 0 0 500 500;" xml:space="preserve">
<style type="text/css">
	.st0{fill:#BE1823;}
</style>
<g>
	<path class="st0" d="M249.4,0.1c23.8,0,47.5-0.4,71.3,0.1c16.3,0.4,29.9,7.1,38.3,21.5c8.6,14.6,9.7,29.8,0.8,44.8
		c-1.5,2.6-0.7,3.6,1.6,4.8c15.8,8.5,30.6,18.4,44.3,30.1c28.9,24.7,49.8,54.9,63.6,90.2c8.3,21.3,13.4,43.4,14.8,66.3
		c2.3,36.9-4.9,71.9-19.7,105.5c-11.5,26.1-27.5,49.2-47.9,69.1c-36.2,35.4-79.5,56.8-129.5,64.6c-17.2,2.7-34.5,3.4-51.8,2.3
		c-40.1-2.4-77.4-13.9-111.5-35.2c-37.2-23.2-65.6-54.5-84.9-93.8c-12.2-24.8-19.7-51.1-22.3-78.6c-6-62.8,13.5-117.6,53.1-165.9
		c18.9-23,42.2-40.8,68.4-54.8c2.3-1.3,2.9-2.1,1.5-4.7c-16.5-30.4,4.6-65.9,39.3-66.4c0.4,0,0.9,0,1.3,0
		C203.2,0.1,226.3,0.1,249.4,0.1C249.4,0.1,249.4,0.1,249.4,0.1z M249.8,25.8c-21.9,0-43.8,0-65.6,0c-4.1,0-8.2,0.3-12.1,1.8
		c-12.4,4.5-16.3,19.6-7.5,29.4c5.9,6.5,12.9,11.8,19.4,17.7c2.8,2.6,2.9,2.7-0.7,4.3c-4.6,2-9.1,4-13.7,6
		c-47.6,20.4-84,52.8-107.3,99.4c-11.7,23.5-19,48.3-20.6,74.5c-1,17.1,0.2,34.1,3.8,50.9C59.3,372.6,94.2,419.7,151,449.9
		c41.2,21.9,85.3,28.5,131.4,21.6c51.7-7.8,95.2-31.2,128.5-71.5c37.6-45.4,54.3-97.9,45.3-156.5c-9.5-61.6-41.7-109.2-94.9-142.2
		c-17.1-10.6-35.6-18.1-53.9-26.2c-0.9-0.4-2.2-0.4-2.2-1.7c0-1,1.2-1.2,2-1.6c7.1-3.4,14.2-6.9,21.3-10.2
		c7.2-3.3,11.8-10.4,11.2-17.6c-0.6-8.3-5.8-14.6-13.8-16.9c-3.5-1-7.2-1.4-10.9-1.4C293.3,25.8,271.5,25.8,249.8,25.8z"/>
	<path class="st0" d="M414.7,270.8c1,70-46.1,133.9-114.5,154.6c-14.9,4.5-30,6.8-45.5,7.2c-41.5,1-78.7-10.7-110.9-37
		c-32-26.1-51.6-59.9-57.3-100.9c-7.6-55,9.5-101.9,49.8-139.9c25.2-23.8,55.5-37.6,89.8-42.3c41.7-5.7,80.6,2.5,115.7,25.6
		c40.3,26.6,64.4,64,71.6,112C414.5,257.4,414.9,264.5,414.7,270.8z M110.6,271.3c0.1,6.3,0.6,12.3,1.5,18.4
		c5.8,39.5,25.1,70.7,58.1,93.1c31,21.1,65.6,27.8,102.6,22.2c36.1-5.5,65.7-22.5,88-51.4c23-29.8,32.1-63.7,26.8-101
		c-4.6-32.3-19.8-59.3-44.3-80.8c-24.7-21.7-53.7-33-86.3-34.7c-23-1.2-45.3,2.6-66,12.6C139.9,174.2,113.3,215,110.6,271.3z"/>
	<path class="st0" d="M239.8,318.7c-18,0-32.8-14.3-33-32c-0.1-7,2.2-13.6,6.4-19.2c16.2-21.6,32.5-43.1,48.7-64.6
		c7.2-9.6,14.4-19.1,21.6-28.7c6.5-8.7,15-14.1,25.9-15.3c17.1-1.9,33.7,11.1,35.3,28.8c0.8,8.8-1.6,16.8-6.9,23.8
		c-23.7,31.5-47.4,62.9-71.2,94.3C259.9,314.6,250.8,318.9,239.8,318.7z M318.6,191.4c0.1-4.7-4-7.6-8.3-6.2
		c-2.8,0.9-4.7,2.9-6.4,5.1c-17,22.6-34.1,45.1-51.1,67.7c-6.1,8.1-12.2,16.3-18.4,24.5c-2,2.7-2.1,5.2,0.1,7.8c2,2.4,5,3.1,8.1,1.9
		c1.6-0.6,2.8-1.8,3.8-3.1c23.3-30.8,46.5-61.6,69.8-92.4C317.6,195.2,318.7,193.3,318.6,191.4z"/>
</g>
</svg>
